<svg xmlns="http://www.w3.org/2000/svg" viewBox="0 0 500 500"><g id="freepik--Shadow--inject-41"><ellipse cx="248.26" cy="459.1" rx="153.39" ry="18.71" style="opacity:0.16"></ellipse></g><g id="freepik--Character--inject-41"><path d="M222,244.35s-7,30.66-7.28,45.08.52,66.39.79,77.54,5.17,47.34,5.17,50.6.82,9.52.82,9.52l-2.18,11.7a45.51,45.51,0,0,1-6.8,4.35c-4.9,2.72-10.61,6.26-12.24,8.16h0a1.89,1.89,0,0,0,.74,3,20.65,20.65,0,0,0,6.06,1.37c4.62.27,12.24.27,16.32-.82s7.35-4.62,9.25-6l1.91-1.36.27,3a25.91,25.91,0,0,0,2.72-.55,25.23,25.23,0,0,0,5.71-2.44s.27-4.63.27-7.35-1.36-7.62-1.63-8.7,0-10.89-.81-14.15-1.36-2.45-1.91-8.43,4.35-62.58,4.08-64.21S250.18,294,250.18,294s13.75,64,18.1,76.25,6.53,35.91,6.53,37.55,2.45,20.94,3.54,23.67,4.08,11.15,4.08,11.15,4.35,6.53,6.25,9.79,8.44,6,13.33,6.8,8.71,1.09,9-5.44-2.17-10.88-6.26-13.87-4.89-5.71-4.89-5.71a81.15,81.15,0,0,0,0-12c-.55-4.63-3.54-8.17-3.81-17.69s-2.18-59.58-3.81-67.47-3.78-60.67-3.51-68-.69-27.81-.69-27.81l-66.24-.75Z" style="fill:#263238;stroke:#263238;stroke-miterlimit:10;stroke-width:0.75px"></path><path d="M248,134.74s-10.11,6-17.27,9.54-15.9,5.6-16.79,7.61-16.34,34.93-19.25,39.4-9.85,13.21-8.51,18.13,6.94,11.64,10.52,11.2,10.75-2.47,13.66-7.61,9.85-21.72,9.85-21.72,1.12,15.45.89,23.06-.22,13.88-.67,17.68-2.46,8.51-1.57,9.85,2,2.69,3.14,2.47,17.91-.45,23-.23,28.43,0,33.36.23,9.18-2.24,9.62-3.14,1.35-2.24.9-7.16.45-19.92,1.79-25.74,9.4-28.21,9.4-28.21,21.27,16.79,25.75,18.13,16.56-.67,20.59-5.59,5.37-8.74,2.91-12.09-11.42-6.49-20.82-16.57-13-14.77-19.47-17.91-19.7-7.38-22.84-8.73-4-2-6-2.91-6.72-2.68-15.45-2.91A45.16,45.16,0,0,0,248,134.74Z" style="fill:#92E3A9;stroke:#263238;stroke-miterlimit:10;stroke-width:0.75px"></path><path d="M215.69,175.43c.31,1.08,4.51,15.86,4.51,15.86L214,179" style="fill:none;stroke:#263238;stroke-miterlimit:10;stroke-width:0.75px"></path><path d="M300.11,180.1c-.93,0-9.73-5-9.73-5" style="fill:none;stroke:#263238;stroke-miterlimit:10;stroke-width:0.75px"></path><path d="M285.9,174.51s3.55,4.63,6.64,5.55" style="fill:none;stroke:#263238;stroke-miterlimit:10;stroke-width:0.75px"></path><path d="M246.74,148.47l2.81,10.61s-8.9,44.49-10.3,52a113.3,113.3,0,0,0-1.72,13.73l7.8,15.45,9.84-16.7s-.94-21.07-1.25-37.92.31-25,.15-25.44,9.84-7.81,9.84-7.81,5.77-6.4,6.08-7.49-4.05.31-5,1.25a8.91,8.91,0,0,1-7.8,1.87c-4.06-.78-9.37-5.3-10.15-3.12A5.91,5.91,0,0,0,246.74,148.47Z" style="fill:#263238;stroke:#263238;stroke-miterlimit:10;stroke-width:0.75px"></path><path d="M253.45,130.37c-.47.31-4.21,1.25-5.46,4.37s-7.65,17.48-9.52,19.82,1.09,1.4,3.59-.16,4.68-7.64,6.08-5,5.47,3.74,5.47,3.74,8.42-1.56,10.3-2.81a27,27,0,0,0,3.59-3s7.18,10.77,9.2,11.7,2.35-.62,2.5-2.34a128.76,128.76,0,0,1,3.59-18.57c2-6.71-1.87-8.9-4.37-11.7s-5.31-.94-8.11-.63S253.45,130.37,253.45,130.37Z" style="fill:#92E3A9;stroke:#263238;stroke-miterlimit:10;stroke-width:0.75px"></path><path d="M249.17,82.31s-4.88,7.41-4,9.21.9,4.16,0,5.42a7.59,7.59,0,0,0-1.63,6c.36,3.07-1.44,18.6,1.27,20.41a24.84,24.84,0,0,0,5.59,2.71s3.07,26,4.16,25.28S271.2,134.69,273,131.25s4-8.3,4-8.3,6.14-11.74,9.75-16.62,7.77-13.9,6.51-18.6-7.77-8.13-10.84-10.66-1.08-8.3-5.42-11.19-9.57-3.61-13-2.35-3.61,4-7.77,1.26-8.12-5.41-14.44-2.34-7.59,13.9-3.8,16.79S249.17,82.31,249.17,82.31Z" style="fill:#fff;stroke:#263238;stroke-miterlimit:10;stroke-width:0.75px"></path><path d="M282.4,77.07c-3.07-2.52-1.08-8.3-5.42-11.19s-9.57-3.61-13-2.35-3.61,4-7.77,1.26-8.12-5.41-14.44-2.34-7.59,13.9-3.8,16.79,11.2,3.07,11.2,3.07,5.42-2.53,9-4.51,11.74,1.26,13.18,2.53-.72.36-1.08,2.7,4.15,6.15,6.14,8-.36,3.07-.9,5.42,1.62,3.25,2.89,2.35,5.23-6,6.68-3.07,3.61,7.22-.36,10.29-6.87,2.35-6.87,2.35-1.29,7.82,2.46,8.43a116.83,116.83,0,0,1,6.39-10.42c3.62-4.87,7.77-13.9,6.51-18.6S285.47,79.6,282.4,77.07Z" style="fill:#263238;stroke:#263238;stroke-miterlimit:10;stroke-width:0.75px"></path><path d="M258.92,91.88a8.81,8.81,0,0,1,3.61-.54" style="fill:none;stroke:#263238;stroke-miterlimit:10;stroke-width:0.5px"></path><path d="M249.68,93.66a10,10,0,0,0-2.56.92" style="fill:none;stroke:#263238;stroke-miterlimit:10;stroke-width:0.5px"></path><path d="M249.74,88.73a5.89,5.89,0,0,1,.53,4c-.59,2-6.18,6.37-6.11,7.22s3.28,2.63,3.22,3.35-.26,1.91-.26,1.91" style="fill:none;stroke:#263238;stroke-miterlimit:10;stroke-width:0.75px"></path><ellipse cx="261.96" cy="92.93" rx="1.18" ry="1.45" style="fill:#263238;stroke:#263238;stroke-miterlimit:10;stroke-width:0.5px"></ellipse><path d="M259.66,95.3a14.62,14.62,0,0,1,5-1.12" style="fill:none;stroke:#263238;stroke-miterlimit:10;stroke-width:0.75px"></path><path d="M255.49,86.6s3.87-3.59,6.87-2.87,4.14,3.61,3.66,3.62-2-2.22-3.64-2.39-2.81.61-4.23,1.33S255.86,87.51,255.49,86.6Z" style="fill:#263238;stroke:#263238;stroke-miterlimit:10;stroke-width:0.5px"></path><path d="M250,89.45a1.77,1.77,0,0,0-2.24-1.38c-1.77.27-3.11,3.49-2.57,3.45s1.13-2.07,2.51-2.26S250,91.23,250,89.45Z" style="fill:#263238;stroke:#263238;stroke-miterlimit:10;stroke-width:0.5px"></path><path d="M247,109.29s2.83-.33,6.51-.79,8.86-1.18,9.72-3.81a9.9,9.9,0,0,0,.65-4" style="fill:none;stroke:#263238;stroke-miterlimit:10;stroke-width:0.75px"></path><path d="M261.89,100.49a11.27,11.27,0,0,1,3.22.2" style="fill:none;stroke:#263238;stroke-miterlimit:10;stroke-width:0.75px"></path><path d="M277.05,113.47a9.75,9.75,0,0,1-4,6c-3.28,2.09-27.37,4.48-26.57,4.78s3.93,1.8,3.93,1.8l.94,8.55a57.72,57.72,0,0,1,12.55-8.46C271.88,122,276.86,120.63,277.05,113.47Z" style="fill:#263238;stroke:#263238;stroke-miterlimit:10;stroke-width:0.5px"></path><path d="M290.49,230.24s-4.48-.22-5.6-.44-4.7-3.59-6.27-3.36-4.47,3.36-5.59,6-1.57,4-1.57,4-4,3.58-2,6,4.26,1.57,4.26,1.57,1.34,2.24,3.13,2.46a37.82,37.82,0,0,0,4,.23,10.52,10.52,0,0,0,3.58.45,8.21,8.21,0,0,0,2.69-1.12,3.9,3.9,0,0,0,2.69-.68c.82-.65,4.79-4.71,6.84-6.8l1.21-1.25Z" style="fill:#fff;stroke:#263238;stroke-miterlimit:10;stroke-width:0.75px"></path><path d="M327.87,184.13s-8.28,9.18-11,13.65a220,220,0,0,1-14.1,19.7c-3.13,3.58-14.1,12.32-14.1,12.32s3.35,7.16,5.82,8.28a24.83,24.83,0,0,0,4.47,1.56l9-6.71s17-13,26-20.37,21.49-17.24,22.39-21.49.22-6.49-4.25-9.85a31.58,31.58,0,0,0-9.18-4.7" style="fill:#92E3A9;stroke:#263238;stroke-miterlimit:10;stroke-width:0.75px"></path><path d="M295.64,224.2s2,9.85,8.95,9.85" style="fill:none;stroke:#263238;stroke-miterlimit:10;stroke-width:0.75px"></path><path d="M198.1,151.67s.92,7.87,1.39,11.42a12.24,12.24,0,0,0,1.54,5.09s-7.25,16.2-7.56,16.67-7.87,14.66-9.11,16.35-4.16,7.1-2.31,10.5,4.78,10.34,8.64,10.49,9.26-2.16,13-4.32,4.94-3.55,5.25-9.72.15-17.28,1.24-23.15,1.85-12,2.62-14.35,5.25-1.54,6.79-2.47,2.93-2.93,5.71-4.17a13.59,13.59,0,0,1,7.56-.61c.93.31,2.62-1.08,2.16-2.78s-3.55-2.62-6.64-2.32-5.86,1.24-6.63.78-1.54-8.65-1.54-8.65-11,.93-14.82,1.08S198.1,151.67,198.1,151.67Z" style="fill:#fff;stroke:#263238;stroke-miterlimit:10;stroke-width:0.75px"></path><path d="M215.07,145.65s.16,10.19.16,11.11a1.56,1.56,0,0,0,1.69,1.54c.78-.15,2.78.62,3.25-1.69s1.38-8.8.92-10.34S216.46,144.11,215.07,145.65Z" style="fill:#fff;stroke:#263238;stroke-miterlimit:10;stroke-width:0.75px"></path><path d="M215.07,145.65s-4.93-1.23-6.32-.46.77,11.73.92,12.65,2.32,1.39,3.24,1.08,2.32-.92,2.32-2.16S215.07,145.65,215.07,145.65Z" style="fill:#fff;stroke:#263238;stroke-miterlimit:10;stroke-width:0.75px"></path><path d="M207.67,145.5s-3.24-.62-4.17.46-1.23,2.62-.93,5.4a26.53,26.53,0,0,0,2.47,7.87c.62.93,2.63,1.08,3.86.62s.77-2,.77-2-.62-.62-.77-5.4-.15-7.25-.15-7.25Z" style="fill:#fff;stroke:#263238;stroke-miterlimit:10;stroke-width:0.75px"></path><path d="M202.27,147.35c-.62.15-4.48.31-4.63,1.85s1.23,8.8,1.85,9.57,2.31.46,2.93.15,1.7-.77,1.54-1.7S202.27,147.35,202.27,147.35Z" style="fill:#fff;stroke:#263238;stroke-miterlimit:10;stroke-width:0.75px"></path><path d="M203.5,177.9a6.48,6.48,0,0,1-5-4c-2.12,4.72-4.82,10.69-5,11-.31.46-7.87,14.66-9.11,16.35s-4.16,7.1-2.31,10.5,4.78,10.34,8.64,10.49,9.26-2.16,13-4.32,4.94-3.55,5.25-9.72.15-17.28,1.24-23.15c.52-2.88,1-5.82,1.4-8.36A22.07,22.07,0,0,1,203.5,177.9Z" style="fill:#92E3A9;stroke:#263238;stroke-miterlimit:10;stroke-width:0.75px"></path><path d="M210.6,160.93s-2.63,2.31-2.93,4.32a5.9,5.9,0,0,0,.77,3.7" style="fill:#fff;stroke:#263238;stroke-miterlimit:10;stroke-width:0.75px"></path></g></svg>